<svg xmlns="http://www.w3.org/2000/svg" viewBox="0 0 64 64" role="img" aria-label="BentTech.AI mark">
  <defs>
    <linearGradient id="btGradient" x1="0%" y1="0%" x2="100%" y2="100%">
      <stop offset="0%" stop-color="#3b82f6" />
      <stop offset="100%" stop-color="#0ea5e9" />
    </linearGradient>
  </defs>
  <rect x="2" y="2" width="60" height="60" rx="12" fill="url(#btGradient)" />
  <rect x="12" y="12" width="12" height="40" rx="3" fill="#ffffff" />
  <path d="M27 12h16c7 0 12 4 12 10 0 5-4 8-8 9 6 1 10 5 10 11 0 7-6 12-14 12H27V12Zm10 17h5c3 0 5-2 5-4s-2-4-5-4h-5v8Zm0 16h7c4 0 6-2 6-5s-2-5-6-5h-7v10Z" fill="#ffffff" />
</svg>
