<svg xmlns="http://www.w3.org/2000/svg" viewBox="0 0 64 64" role="img" aria-label="Meridian AI logo mark">
  <defs>
    <linearGradient id="meridian-bg" x1="7%" y1="6%" x2="92%" y2="96%">
      <stop offset="0%" stop-color="#0b0a10" />
      <stop offset="58%" stop-color="#12111a" />
      <stop offset="100%" stop-color="#1a1330" />
    </linearGradient>
    <linearGradient id="meridian-violet" x1="12%" y1="0%" x2="86%" y2="100%">
      <stop offset="0%" stop-color="#8c68ff" />
      <stop offset="100%" stop-color="#5b2aae" />
    </linearGradient>
    <linearGradient id="meridian-gold" x1="0%" y1="0%" x2="100%" y2="0%">
      <stop offset="0%" stop-color="#f1d78d" />
      <stop offset="100%" stop-color="#c9a44c" />
    </linearGradient>
    <filter id="meridian-glow" x="-30%" y="-30%" width="160%" height="160%">
      <feGaussianBlur stdDeviation="1.2" result="blur" />
      <feMerge>
        <feMergeNode in="blur" />
        <feMergeNode in="SourceGraphic" />
      </feMerge>
    </filter>
  </defs>

  <rect x="2" y="2" width="60" height="60" rx="14" fill="url(#meridian-bg)" />
  <rect x="2" y="2" width="60" height="60" rx="14" fill="none" stroke="url(#meridian-violet)" stroke-opacity="0.6" stroke-width="1.3" />

  <path d="M15 47V17h6.5L32 33l10.5-16H49v30h-6V27.4L32 43.2 21 27.4V47z" fill="#f7f7fb" />

  <path d="M11.5 13.5c8.5-7.5 32.5-7.5 41 0" fill="none" stroke="url(#meridian-violet)" stroke-width="2.6" stroke-linecap="round" opacity="0.95" />
  <path d="M12 50c9.8-8.8 30.2-8.8 40 0" fill="none" stroke="url(#meridian-gold)" stroke-width="3" stroke-linecap="round" opacity="0.92" filter="url(#meridian-glow)" />

  <circle cx="32" cy="12.6" r="3.2" fill="url(#meridian-gold)" filter="url(#meridian-glow)" />
</svg>
